# xmcd
#
# Track frame offsets: 
#        150
#        18750
#        33075
#        51338
#        79388
#        96563
#        111376
#        130539
#        148014
#        164214
#        184164
#        200327
#        220840
#        240828
#
# Disc length: 3532 seconds
#
# Revision: 0
# Processed by: cddbd v1.5.2PL0 Copyright (c) Steve Scherf et al.
# Submitted via: ExactAudioCopy v1.0b3
#
DISCID=c40dca0e
DTITLE=Roman Pokorný - Eldorado
DYEAR=2015
DGENRE=
TTITLE0=Can't Turn Back Time
TTITLE1=Eldorado
TTITLE2=Don't Miss Me Baby
TTITLE3=Your Fleeting Love
TTITLE4=Big Joe
TTITLE5=iPrayer
TTITLE6=Harmony in Blue
TTITLE7=Pokyman
TTITLE8=On My Way
TTITLE9=Then I Will Take You Home
TTITLE10=Mary Smith
TTITLE11=Dirty Radio
TTITLE12=Where Do those Legs End?
TTITLE13=Blues for Him Hall
EXTD=
EXTT0=
EXTT1=
EXTT2=
EXTT3=
EXTT4=
EXTT5=
EXTT6=
EXTT7=
EXTT8=
EXTT9=
EXTT10=
EXTT11=
EXTT12=
EXTT13=
PLAYORDER=
